<svg xmlns="http://www.w3.org/2000/svg" version="1.1" xmlns:xlink="http://www.w3.org/1999/xlink" xmlns:svgjs="http://svgjs.com/svgjs" width="48" height="48"><svg version="1.1" id="SvgjsSvg1000" xmlns="http://www.w3.org/2000/svg" xmlns:xlink="http://www.w3.org/1999/xlink" x="0px" y="0px" viewBox="0 0 48 48" style="enable-background:new 0 0 48 48;" xml:space="preserve">
<style type="text/css">
	.st0{fill:#FFFFFF;}
</style>
<path d="M38.2,48H9.8C4.4,48,0,43.6,0,38.2V9.8C0,4.4,4.4,0,9.8,0h28.5C43.6,0,48,4.4,48,9.8v28.5C48,43.6,43.6,48,38.2,48z"></path>
<path class="st0" d="M41.1,33.4V35c0,0.5-0.3,0.7-0.7,0.7h-7.6c-0.5,0-0.7-0.2-0.7-0.7V16.2h-2.2v-3.2c0-0.4,0.3-0.6,0.7-0.6h5.7
	v19.3h2.3V17.9h0v-7.6l-31.3,0c-1.2,0-2.2,1-2.2,2.2v3.6v2.5h5.8v19.1h8.5v0h10.5h3H41c1.2,0,2.3-1,2.3-2.3v-2H41.1z M13,35V16.2
	H7.2V13c0-0.5,0.3-0.7,0.7-0.7H17l0,23.4h-3.3C13.3,35.7,13,35.4,13,35z M22.3,35.7c-0.5,0-0.7-0.2-0.7-0.7V16.2h-2.1v-3.4
	c0-0.3,0.2-0.5,0.5-0.5l0,0l5.7,0v19.1l4.2,0v4.2H22.3z"></path>
</svg><style>@media (prefers-color-scheme: light) { :root { filter: none; } }
@media (prefers-color-scheme: dark) { :root { filter: invert(100%); } }
</style></svg>